<mxfile host="app.diagrams.net" agent="Mozilla/5.0 (Windows NT 10.0; Win64; x64) AppleWebKit/537.36 (KHTML, like Gecko) Chrome/137.0.0.0 Safari/537.36" version="27.1.6">
  <diagram name="Page-1" id="L4K79XR2br85mSk08lr6">
    <mxGraphModel grid="1" page="1" gridSize="10" guides="1" tooltips="1" connect="1" arrows="1" fold="1" pageScale="1" pageWidth="850" pageHeight="1100" math="0" shadow="0">
      <root>
        <mxCell id="0" />
        <mxCell id="1" parent="0" />
        <mxCell id="4VaB1KjLnEuzoE2qa5hZ-18" value="&lt;b&gt;User&lt;/b&gt;" style="swimlane;childLayout=stackLayout;horizontal=1;startSize=50;horizontalStack=0;rounded=1;fontSize=14;fontStyle=0;strokeWidth=2;resizeParent=0;resizeLast=1;shadow=0;dashed=0;align=center;arcSize=4;whiteSpace=wrap;html=1;" vertex="1" parent="1">
          <mxGeometry x="-300" width="280" height="320" as="geometry" />
        </mxCell>
        <mxCell id="4VaB1KjLnEuzoE2qa5hZ-19" value="&lt;p style=&quot;margin-left:18.0pt&quot; class=&quot;MsoNormal&quot;&gt;&lt;span style=&quot;line-height: 115%;&quot;&gt;&lt;font face=&quot;Times New Roman&quot; style=&quot;font-size: 8px;&quot;&gt;user_id: Primary Key, UUID, Indexed&lt;/font&gt;&lt;/span&gt;&lt;/p&gt;&lt;p style=&quot;margin-left:18.0pt&quot; class=&quot;MsoNormal&quot;&gt;&lt;span style=&quot;font-size: 8px; font-family: &amp;quot;Times New Roman&amp;quot;; background-color: transparent; color: light-dark(rgb(0, 0, 0), rgb(255, 255, 255));&quot;&gt;first_name: VARCHAR, NOT NULL&lt;/span&gt;&lt;/p&gt;&lt;p style=&quot;margin-left:18.0pt&quot; class=&quot;MsoNormal&quot;&gt;&lt;span style=&quot;line-height: 115%;&quot;&gt;&lt;font face=&quot;Times New Roman&quot; style=&quot;font-size: 8px;&quot;&gt;last_name: VARCHAR, NOT NULL&lt;/font&gt;&lt;/span&gt;&lt;/p&gt;&lt;p style=&quot;margin-left:18.0pt&quot; class=&quot;MsoNormal&quot;&gt;&lt;span style=&quot;line-height: 115%;&quot;&gt;&lt;font face=&quot;Times New Roman&quot; style=&quot;font-size: 8px;&quot;&gt;email: VARCHAR, UNIQUE, NOT NULL&lt;/font&gt;&lt;/span&gt;&lt;/p&gt;&lt;p style=&quot;margin-left:18.0pt&quot; class=&quot;MsoNormal&quot;&gt;&lt;span style=&quot;line-height: 115%;&quot;&gt;&lt;font face=&quot;Times New Roman&quot; style=&quot;font-size: 8px;&quot;&gt;password_hash: VARCHAR, NOT NULL&lt;/font&gt;&lt;/span&gt;&lt;/p&gt;&lt;p style=&quot;margin-left:18.0pt&quot; class=&quot;MsoNormal&quot;&gt;&lt;span style=&quot;line-height: 115%;&quot;&gt;&lt;font face=&quot;Times New Roman&quot; style=&quot;font-size: 8px;&quot;&gt;phone_number: VARCHAR, NULL&lt;/font&gt;&lt;/span&gt;&lt;/p&gt;&lt;p style=&quot;margin-left:18.0pt&quot; class=&quot;MsoNormal&quot;&gt;&lt;span style=&quot;line-height: 115%;&quot;&gt;&lt;font face=&quot;Times New Roman&quot; style=&quot;font-size: 8px;&quot;&gt;role: ENUM (guest,&amp;nbsp;host,&amp;nbsp;admin), NOT NULL&lt;/font&gt;&lt;/span&gt;&lt;/p&gt;&lt;p style=&quot;margin-left:18.0pt&quot; class=&quot;MsoNormal&quot;&gt;&lt;span style=&quot;font-size: 8px; font-family: &amp;quot;Times New Roman&amp;quot;; background-color: transparent; color: light-dark(rgb(0, 0, 0), rgb(255, 255, 255));&quot;&gt;created_at: TIMESTAMP, DEFAULT&lt;/span&gt;&lt;/p&gt;&lt;p style=&quot;margin-left:18.0pt&quot; class=&quot;MsoNormal&quot;&gt;&lt;span style=&quot;font-size: 8px; font-family: &amp;quot;Times New Roman&amp;quot;; background-color: transparent; color: light-dark(rgb(0, 0, 0), rgb(255, 255, 255));&quot;&gt;CURRENT_TIMESTAMP&lt;/span&gt;&lt;/p&gt;&lt;font face=&quot;Times New Roman&quot;&gt;&lt;br&gt;&lt;br&gt;&lt;/font&gt;&lt;p class=&quot;MsoNormal&quot;&gt;&lt;span style=&quot;font-size:8.0pt;line-height:115%;mso-ansi-language:&amp;lt;br/&amp;gt;#2000&quot;&gt;&lt;font face=&quot;Times New Roman&quot;&gt;&amp;nbsp;&lt;/font&gt;&lt;/span&gt;&lt;/p&gt;" style="align=left;strokeColor=none;fillColor=none;spacingLeft=4;spacingRight=4;fontSize=12;verticalAlign=top;resizable=0;rotatable=0;part=1;html=1;whiteSpace=wrap;" vertex="1" parent="4VaB1KjLnEuzoE2qa5hZ-18">
          <mxGeometry y="50" width="280" height="270" as="geometry" />
        </mxCell>
        <mxCell id="4VaB1KjLnEuzoE2qa5hZ-58" style="edgeStyle=orthogonalEdgeStyle;rounded=0;orthogonalLoop=1;jettySize=auto;html=1;exitX=0;exitY=0;exitDx=0;exitDy=0;entryX=0;entryY=0;entryDx=0;entryDy=0;" edge="1" parent="4VaB1KjLnEuzoE2qa5hZ-18" source="4VaB1KjLnEuzoE2qa5hZ-19" target="4VaB1KjLnEuzoE2qa5hZ-19">
          <mxGeometry relative="1" as="geometry" />
        </mxCell>
        <mxCell id="4VaB1KjLnEuzoE2qa5hZ-31" value="&lt;b&gt;Property&lt;/b&gt;" style="swimlane;childLayout=stackLayout;horizontal=1;startSize=50;horizontalStack=0;rounded=1;fontSize=14;fontStyle=0;strokeWidth=2;resizeParent=0;resizeLast=1;shadow=0;dashed=0;align=center;arcSize=4;whiteSpace=wrap;html=1;" vertex="1" parent="1">
          <mxGeometry x="-760" y="-10" width="270" height="320" as="geometry" />
        </mxCell>
        <mxCell id="4VaB1KjLnEuzoE2qa5hZ-32" value="&lt;p style=&quot;margin-left:18.0pt&quot; class=&quot;MsoNormal&quot;&gt;&lt;b&gt;&lt;span style=&quot;font-size:5.0pt;&amp;lt;br/&amp;gt;line-height:115%;font-family:&amp;quot;Times New Roman&amp;quot;,serif;mso-ascii-theme-font:major-bidi;&amp;lt;br/&amp;gt;mso-hansi-theme-font:major-bidi;mso-bidi-theme-font:major-bidi;mso-ansi-language:&amp;lt;br/&amp;gt;#2000&quot;&gt;property_id&lt;/span&gt;&lt;/b&gt;&lt;span style=&quot;font-size:5.0pt;line-height:115%;&amp;lt;br/&amp;gt;font-family:&amp;quot;Times New Roman&amp;quot;,serif;mso-ascii-theme-font:major-bidi;mso-hansi-theme-font:&amp;lt;br/&amp;gt;major-bidi;mso-bidi-theme-font:major-bidi;mso-ansi-language:#2000&quot;&gt;: Primary Key, UUID, Indexed&lt;/span&gt;&lt;/p&gt;&lt;p style=&quot;margin-left:18.0pt&quot; class=&quot;MsoNormal&quot;&gt;&lt;b style=&quot;background-color: transparent; color: light-dark(rgb(0, 0, 0), rgb(255, 255, 255));&quot;&gt;&lt;span style=&quot;font-size:5.0pt;&amp;lt;br/&amp;gt;line-height:115%;font-family:&amp;quot;Times New Roman&amp;quot;,serif;mso-ascii-theme-font:major-bidi;&amp;lt;br/&amp;gt;mso-hansi-theme-font:major-bidi;mso-bidi-theme-font:major-bidi;mso-ansi-language:&amp;lt;br/&amp;gt;#2000&quot;&gt;host_id&lt;/span&gt;&lt;/b&gt;&lt;span style=&quot;background-color: transparent; color: light-dark(rgb(0, 0, 0), rgb(255, 255, 255)); font-size: 5pt; line-height: 115%;&quot;&gt;: Foreign&amp;nbsp;&lt;/span&gt;&lt;span style=&quot;font-size: 5pt; background-color: transparent; color: light-dark(rgb(0, 0, 0), rgb(255, 255, 255));&quot;&gt;Key, references&amp;nbsp;User(user_id)&lt;/span&gt;&lt;/p&gt;&lt;p style=&quot;margin-left:18.0pt&quot; class=&quot;MsoNormal&quot;&gt;&lt;b&gt;&lt;span style=&quot;font-size:5.0pt;&amp;lt;br/&amp;gt;line-height:115%;font-family:&amp;quot;Times New Roman&amp;quot;,serif;mso-ascii-theme-font:major-bidi;&amp;lt;br/&amp;gt;mso-hansi-theme-font:major-bidi;mso-bidi-theme-font:major-bidi;mso-ansi-language:&amp;lt;br/&amp;gt;#2000&quot;&gt;name&lt;/span&gt;&lt;/b&gt;&lt;span style=&quot;font-size:5.0pt;line-height:115%;font-family:&amp;lt;br/&amp;gt;&amp;quot;Times New Roman&amp;quot;,serif;mso-ascii-theme-font:major-bidi;mso-hansi-theme-font:&amp;lt;br/&amp;gt;major-bidi;mso-bidi-theme-font:major-bidi;mso-ansi-language:#2000&quot;&gt;: VARCHAR, NOT NULL&lt;/span&gt;&lt;/p&gt;&lt;p style=&quot;margin-left:18.0pt&quot; class=&quot;MsoNormal&quot;&gt;&lt;b&gt;&lt;span style=&quot;font-size:5.0pt;&amp;lt;br/&amp;gt;line-height:115%;font-family:&amp;quot;Times New Roman&amp;quot;,serif;mso-ascii-theme-font:major-bidi;&amp;lt;br/&amp;gt;mso-hansi-theme-font:major-bidi;mso-bidi-theme-font:major-bidi;mso-ansi-language:&amp;lt;br/&amp;gt;#2000&quot;&gt;description&lt;/span&gt;&lt;/b&gt;&lt;span style=&quot;font-size:5.0pt;line-height:115%;&amp;lt;br/&amp;gt;font-family:&amp;quot;Times New Roman&amp;quot;,serif;mso-ascii-theme-font:major-bidi;mso-hansi-theme-font:&amp;lt;br/&amp;gt;major-bidi;mso-bidi-theme-font:major-bidi;mso-ansi-language:#2000&quot;&gt;: TEXT, NOT NULL&lt;/span&gt;&lt;/p&gt;&lt;p style=&quot;margin-left:18.0pt&quot; class=&quot;MsoNormal&quot;&gt;&lt;b&gt;&lt;span style=&quot;font-size:5.0pt;&amp;lt;br/&amp;gt;line-height:115%;font-family:&amp;quot;Times New Roman&amp;quot;,serif;mso-ascii-theme-font:major-bidi;&amp;lt;br/&amp;gt;mso-hansi-theme-font:major-bidi;mso-bidi-theme-font:major-bidi;mso-ansi-language:&amp;lt;br/&amp;gt;#2000&quot;&gt;location&lt;/span&gt;&lt;/b&gt;&lt;span style=&quot;font-size:5.0pt;line-height:115%;&amp;lt;br/&amp;gt;font-family:&amp;quot;Times New Roman&amp;quot;,serif;mso-ascii-theme-font:major-bidi;mso-hansi-theme-font:&amp;lt;br/&amp;gt;major-bidi;mso-bidi-theme-font:major-bidi;mso-ansi-language:#2000&quot;&gt;: VARCHAR, NOT NULL&lt;/span&gt;&lt;/p&gt;&lt;p style=&quot;margin-left:18.0pt&quot; class=&quot;MsoNormal&quot;&gt;&lt;b&gt;&lt;span style=&quot;font-size:5.0pt;&amp;lt;br/&amp;gt;line-height:115%;font-family:&amp;quot;Times New Roman&amp;quot;,serif;mso-ascii-theme-font:major-bidi;&amp;lt;br/&amp;gt;mso-hansi-theme-font:major-bidi;mso-bidi-theme-font:major-bidi;mso-ansi-language:&amp;lt;br/&amp;gt;#2000&quot;&gt;price&lt;i&gt;per&lt;/i&gt;night&lt;/span&gt;&lt;/b&gt;&lt;span style=&quot;font-size:5.0pt;line-height:&amp;lt;br/&amp;gt;115%;font-family:&amp;quot;Times New Roman&amp;quot;,serif;mso-ascii-theme-font:major-bidi;&amp;lt;br/&amp;gt;mso-hansi-theme-font:major-bidi;mso-bidi-theme-font:major-bidi;mso-ansi-language:&amp;lt;br/&amp;gt;#2000&quot;&gt;: DECIMAL, NOT NULL&lt;/span&gt;&lt;/p&gt;&lt;p style=&quot;margin-left:18.0pt&quot; class=&quot;MsoNormal&quot;&gt;&lt;b&gt;&lt;span style=&quot;font-size:5.0pt;&amp;lt;br/&amp;gt;line-height:115%;font-family:&amp;quot;Times New Roman&amp;quot;,serif;mso-ascii-theme-font:major-bidi;&amp;lt;br/&amp;gt;mso-hansi-theme-font:major-bidi;mso-bidi-theme-font:major-bidi;mso-ansi-language:&amp;lt;br/&amp;gt;#2000&quot;&gt;created_at&lt;/span&gt;&lt;/b&gt;&lt;span style=&quot;font-size:5.0pt;line-height:115%;&amp;lt;br/&amp;gt;font-family:&amp;quot;Times New Roman&amp;quot;,serif;mso-ascii-theme-font:major-bidi;mso-hansi-theme-font:&amp;lt;br/&amp;gt;major-bidi;mso-bidi-theme-font:major-bidi;mso-ansi-language:#2000&quot;&gt;: TIMESTAMP,&lt;br&gt;DEFAULT CURRENT_TIMESTAMP&lt;/span&gt;&lt;/p&gt;&lt;p style=&quot;margin-left:18.0pt&quot; class=&quot;MsoNormal&quot;&gt;&lt;b&gt;&lt;span style=&quot;font-size:5.0pt;&amp;lt;br/&amp;gt;line-height:115%;font-family:&amp;quot;Times New Roman&amp;quot;,serif;mso-ascii-theme-font:major-bidi;&amp;lt;br/&amp;gt;mso-hansi-theme-font:major-bidi;mso-bidi-theme-font:major-bidi;mso-ansi-language:&amp;lt;br/&amp;gt;#2000&quot;&gt;updated_at&lt;/span&gt;&lt;/b&gt;&lt;span style=&quot;font-size:5.0pt;line-height:115%;&amp;lt;br/&amp;gt;font-family:&amp;quot;Times New Roman&amp;quot;,serif;mso-ascii-theme-font:major-bidi;mso-hansi-theme-font:&amp;lt;br/&amp;gt;major-bidi;mso-bidi-theme-font:major-bidi;mso-ansi-language:#2000&quot;&gt;: TIMESTAMP,&lt;br&gt;ON UPDATE CURRENT_TIMESTAMP&lt;/span&gt;&lt;/p&gt;&lt;p style=&quot;margin-left:18.0pt&quot; class=&quot;MsoNormal&quot;&gt;&lt;br&gt;&lt;br&gt;&lt;br&gt;&lt;br&gt;&lt;br&gt;&lt;br&gt;&lt;br&gt;&lt;br&gt;&lt;br&gt;&lt;br&gt;&lt;br&gt;&lt;br&gt;&lt;br&gt;&lt;br&gt;&lt;br&gt;&lt;br&gt;&lt;/p&gt;&lt;p class=&quot;MsoNormal&quot;&gt;&lt;span style=&quot;font-size:5.0pt;line-height:115%;font-family:&amp;lt;br/&amp;gt;&amp;quot;Times New Roman&amp;quot;,serif;mso-ascii-theme-font:major-bidi;mso-hansi-theme-font:&amp;lt;br/&amp;gt;major-bidi;mso-bidi-theme-font:major-bidi;mso-ansi-language:#2000&quot;&gt;&amp;nbsp;&lt;/span&gt;&lt;/p&gt;" style="align=left;strokeColor=none;fillColor=none;spacingLeft=4;spacingRight=4;fontSize=12;verticalAlign=top;resizable=0;rotatable=0;part=1;html=1;whiteSpace=wrap;" vertex="1" parent="4VaB1KjLnEuzoE2qa5hZ-31">
          <mxGeometry y="50" width="270" height="270" as="geometry" />
        </mxCell>
        <mxCell id="4VaB1KjLnEuzoE2qa5hZ-33" value="&lt;b&gt;Booking&lt;/b&gt;" style="swimlane;childLayout=stackLayout;horizontal=1;startSize=50;horizontalStack=0;rounded=1;fontSize=14;fontStyle=0;strokeWidth=2;resizeParent=0;resizeLast=1;shadow=0;dashed=0;align=center;arcSize=4;whiteSpace=wrap;html=1;" vertex="1" parent="1">
          <mxGeometry x="140" width="250" height="320" as="geometry" />
        </mxCell>
        <mxCell id="4VaB1KjLnEuzoE2qa5hZ-34" value="&lt;p style=&quot;margin-left:18.0pt&quot; class=&quot;MsoNormal&quot;&gt;&lt;span style=&quot;font-size:5.0pt;&lt;br/&gt;line-height:115%;font-family:&amp;quot;Times New Roman&amp;quot;,serif;mso-ascii-theme-font:major-bidi;&lt;br/&gt;mso-hansi-theme-font:major-bidi;mso-bidi-theme-font:major-bidi;mso-ansi-language:&lt;br/&gt;#2000&quot;&gt;booking_id: Primary Key, UUID, Indexed&lt;/span&gt;&lt;/p&gt;&lt;p style=&quot;margin-left:18.0pt&quot; class=&quot;MsoNormal&quot;&gt;&lt;span style=&quot;font-size:5.0pt;&lt;br/&gt;line-height:115%;font-family:&amp;quot;Times New Roman&amp;quot;,serif;mso-ascii-theme-font:major-bidi;&lt;br/&gt;mso-hansi-theme-font:major-bidi;mso-bidi-theme-font:major-bidi;mso-ansi-language:&lt;br/&gt;#2000&quot;&gt;property_id: Foreign Key, references&amp;nbsp;Property(property_id)&lt;/span&gt;&lt;/p&gt;&lt;p style=&quot;margin-left:18.0pt&quot; class=&quot;MsoNormal&quot;&gt;&lt;span style=&quot;font-size:5.0pt;&lt;br/&gt;line-height:115%;font-family:&amp;quot;Times New Roman&amp;quot;,serif;mso-ascii-theme-font:major-bidi;&lt;br/&gt;mso-hansi-theme-font:major-bidi;mso-bidi-theme-font:major-bidi;mso-ansi-language:&lt;br/&gt;#2000&quot;&gt;user_id: Foreign Key, references&amp;nbsp;User(user_id)&lt;/span&gt;&lt;/p&gt;&lt;p style=&quot;margin-left:18.0pt&quot; class=&quot;MsoNormal&quot;&gt;&lt;span style=&quot;font-size:5.0pt;&lt;br/&gt;line-height:115%;font-family:&amp;quot;Times New Roman&amp;quot;,serif;mso-ascii-theme-font:major-bidi;&lt;br/&gt;mso-hansi-theme-font:major-bidi;mso-bidi-theme-font:major-bidi;mso-ansi-language:&lt;br/&gt;#2000&quot;&gt;start_date: DATE, NOT NULL&lt;/span&gt;&lt;/p&gt;&lt;p style=&quot;margin-left:18.0pt&quot; class=&quot;MsoNormal&quot;&gt;&lt;span style=&quot;font-size:5.0pt;&lt;br/&gt;line-height:115%;font-family:&amp;quot;Times New Roman&amp;quot;,serif;mso-ascii-theme-font:major-bidi;&lt;br/&gt;mso-hansi-theme-font:major-bidi;mso-bidi-theme-font:major-bidi;mso-ansi-language:&lt;br/&gt;#2000&quot;&gt;end_date: DATE, NOT NULL&lt;/span&gt;&lt;/p&gt;&lt;p style=&quot;margin-left:18.0pt&quot; class=&quot;MsoNormal&quot;&gt;&lt;span style=&quot;font-size:5.0pt;&lt;br/&gt;line-height:115%;font-family:&amp;quot;Times New Roman&amp;quot;,serif;mso-ascii-theme-font:major-bidi;&lt;br/&gt;mso-hansi-theme-font:major-bidi;mso-bidi-theme-font:major-bidi;mso-ansi-language:&lt;br/&gt;#2000&quot;&gt;total_price: DECIMAL, NOT NULL&lt;/span&gt;&lt;/p&gt;&lt;p style=&quot;margin-left:18.0pt&quot; class=&quot;MsoNormal&quot;&gt;&lt;span style=&quot;font-size:5.0pt;&lt;br/&gt;line-height:115%;font-family:&amp;quot;Times New Roman&amp;quot;,serif;mso-ascii-theme-font:major-bidi;&lt;br/&gt;mso-hansi-theme-font:major-bidi;mso-bidi-theme-font:major-bidi;mso-ansi-language:&lt;br/&gt;#2000&quot;&gt;status: ENUM (pending,&amp;nbsp;confirmed,&amp;nbsp;canceled), NOT NULL&lt;/span&gt;&lt;/p&gt;&lt;p style=&quot;margin-left:18.0pt&quot; class=&quot;MsoNormal&quot;&gt;&lt;span style=&quot;font-size:5.0pt;&lt;br/&gt;line-height:115%;font-family:&amp;quot;Times New Roman&amp;quot;,serif;mso-ascii-theme-font:major-bidi;&lt;br/&gt;mso-hansi-theme-font:major-bidi;mso-bidi-theme-font:major-bidi;mso-ansi-language:&lt;br/&gt;#2000&quot;&gt;created_at: TIMESTAMP, DEFAULT CURRENT_TIMESTAMP&lt;/span&gt;&lt;/p&gt;&lt;p style=&quot;margin-left:18.0pt&quot; class=&quot;MsoNormal&quot;&gt;&lt;br/&gt;&lt;br/&gt;&lt;br/&gt;&lt;br/&gt;&lt;br/&gt;&lt;br/&gt;&lt;br/&gt;&lt;br/&gt;&lt;br/&gt;&lt;br/&gt;&lt;br/&gt;&lt;br/&gt;&lt;br/&gt;&lt;br/&gt;&lt;br/&gt;&lt;br/&gt;&lt;/p&gt;&lt;p class=&quot;MsoNormal&quot;&gt;&amp;nbsp;&lt;/p&gt;" style="align=left;strokeColor=none;fillColor=none;spacingLeft=4;spacingRight=4;fontSize=12;verticalAlign=top;resizable=0;rotatable=0;part=1;html=1;whiteSpace=wrap;" vertex="1" parent="4VaB1KjLnEuzoE2qa5hZ-33">
          <mxGeometry y="50" width="250" height="270" as="geometry" />
        </mxCell>
        <mxCell id="4VaB1KjLnEuzoE2qa5hZ-35" value="&lt;b&gt;Payment&lt;/b&gt;" style="swimlane;childLayout=stackLayout;horizontal=1;startSize=50;horizontalStack=0;rounded=1;fontSize=14;fontStyle=0;strokeWidth=2;resizeParent=0;resizeLast=1;shadow=0;dashed=0;align=center;arcSize=4;whiteSpace=wrap;html=1;" vertex="1" parent="1">
          <mxGeometry x="540" width="270" height="320" as="geometry" />
        </mxCell>
        <mxCell id="4VaB1KjLnEuzoE2qa5hZ-36" value="&lt;p style=&quot;margin-left:18.0pt&quot; class=&quot;MsoNormal&quot;&gt;&lt;b&gt;&lt;span style=&quot;font-size:5.0pt;&lt;br/&gt;line-height:115%;font-family:&amp;quot;Times New Roman&amp;quot;,serif;mso-ascii-theme-font:major-bidi;&lt;br/&gt;mso-hansi-theme-font:major-bidi;mso-bidi-theme-font:major-bidi;mso-ansi-language:&lt;br/&gt;#2000&quot;&gt;payment_id&lt;/span&gt;&lt;/b&gt;&lt;span style=&quot;font-size:5.0pt;line-height:115%;&lt;br/&gt;font-family:&amp;quot;Times New Roman&amp;quot;,serif;mso-ascii-theme-font:major-bidi;mso-hansi-theme-font:&lt;br/&gt;major-bidi;mso-bidi-theme-font:major-bidi;mso-ansi-language:#2000&quot;&gt;: Primary&lt;br/&gt;Key, UUID, Indexed&lt;/span&gt;&lt;/p&gt;&lt;p style=&quot;margin-left:18.0pt&quot; class=&quot;MsoNormal&quot;&gt;&lt;b&gt;&lt;span style=&quot;font-size:5.0pt;&lt;br/&gt;line-height:115%;font-family:&amp;quot;Times New Roman&amp;quot;,serif;mso-ascii-theme-font:major-bidi;&lt;br/&gt;mso-hansi-theme-font:major-bidi;mso-bidi-theme-font:major-bidi;mso-ansi-language:&lt;br/&gt;#2000&quot;&gt;booking_id&lt;/span&gt;&lt;/b&gt;&lt;span style=&quot;font-size:5.0pt;line-height:115%;&lt;br/&gt;font-family:&amp;quot;Times New Roman&amp;quot;,serif;mso-ascii-theme-font:major-bidi;mso-hansi-theme-font:&lt;br/&gt;major-bidi;mso-bidi-theme-font:major-bidi;mso-ansi-language:#2000&quot;&gt;: Foreign&lt;br/&gt;Key, references&amp;nbsp;Booking(booking_id)&lt;/span&gt;&lt;/p&gt;&lt;p style=&quot;margin-left:18.0pt&quot; class=&quot;MsoNormal&quot;&gt;&lt;b&gt;&lt;span style=&quot;font-size:5.0pt;&lt;br/&gt;line-height:115%;font-family:&amp;quot;Times New Roman&amp;quot;,serif;mso-ascii-theme-font:major-bidi;&lt;br/&gt;mso-hansi-theme-font:major-bidi;mso-bidi-theme-font:major-bidi;mso-ansi-language:&lt;br/&gt;#2000&quot;&gt;amount&lt;/span&gt;&lt;/b&gt;&lt;span style=&quot;font-size:5.0pt;line-height:115%;&lt;br/&gt;font-family:&amp;quot;Times New Roman&amp;quot;,serif;mso-ascii-theme-font:major-bidi;mso-hansi-theme-font:&lt;br/&gt;major-bidi;mso-bidi-theme-font:major-bidi;mso-ansi-language:#2000&quot;&gt;: DECIMAL,&lt;br/&gt;NOT NULL&lt;/span&gt;&lt;/p&gt;&lt;p style=&quot;margin-left:18.0pt&quot; class=&quot;MsoNormal&quot;&gt;&lt;b&gt;&lt;span style=&quot;font-size:5.0pt;&lt;br/&gt;line-height:115%;font-family:&amp;quot;Times New Roman&amp;quot;,serif;mso-ascii-theme-font:major-bidi;&lt;br/&gt;mso-hansi-theme-font:major-bidi;mso-bidi-theme-font:major-bidi;mso-ansi-language:&lt;br/&gt;#2000&quot;&gt;payment_date&lt;/span&gt;&lt;/b&gt;&lt;span style=&quot;font-size:5.0pt;line-height:115%;&lt;br/&gt;font-family:&amp;quot;Times New Roman&amp;quot;,serif;mso-ascii-theme-font:major-bidi;mso-hansi-theme-font:&lt;br/&gt;major-bidi;mso-bidi-theme-font:major-bidi;mso-ansi-language:#2000&quot;&gt;: TIMESTAMP,&lt;br/&gt;DEFAULT CURRENT_TIMESTAMP&lt;/span&gt;&lt;/p&gt;&lt;p style=&quot;margin-left:18.0pt&quot; class=&quot;MsoNormal&quot;&gt;&lt;b&gt;&lt;span style=&quot;font-size:5.0pt;&lt;br/&gt;line-height:115%;font-family:&amp;quot;Times New Roman&amp;quot;,serif;mso-ascii-theme-font:major-bidi;&lt;br/&gt;mso-hansi-theme-font:major-bidi;mso-bidi-theme-font:major-bidi;mso-ansi-language:&lt;br/&gt;#2000&quot;&gt;payment_method&lt;/span&gt;&lt;/b&gt;&lt;span style=&quot;font-size:5.0pt;line-height:115%;&lt;br/&gt;font-family:&amp;quot;Times New Roman&amp;quot;,serif;mso-ascii-theme-font:major-bidi;mso-hansi-theme-font:&lt;br/&gt;major-bidi;mso-bidi-theme-font:major-bidi;mso-ansi-language:#2000&quot;&gt;: ENUM (credit_card,&amp;nbsp;paypal,&amp;nbsp;stripe),&lt;br/&gt;NOT NULL&lt;/span&gt;&lt;/p&gt;&lt;p style=&quot;margin-left:18.0pt&quot; class=&quot;MsoNormal&quot;&gt;&lt;br/&gt;&lt;br/&gt;&lt;br/&gt;&lt;br/&gt;&lt;br/&gt;&lt;br/&gt;&lt;br/&gt;&lt;br/&gt;&lt;br/&gt;&lt;br/&gt;&lt;/p&gt;&lt;p class=&quot;MsoNormal&quot;&gt;&amp;nbsp;&lt;/p&gt;" style="align=left;strokeColor=none;fillColor=none;spacingLeft=4;spacingRight=4;fontSize=12;verticalAlign=top;resizable=0;rotatable=0;part=1;html=1;whiteSpace=wrap;" vertex="1" parent="4VaB1KjLnEuzoE2qa5hZ-35">
          <mxGeometry y="50" width="270" height="270" as="geometry" />
        </mxCell>
        <mxCell id="4VaB1KjLnEuzoE2qa5hZ-37" value="&lt;b&gt;Review&lt;/b&gt;" style="swimlane;childLayout=stackLayout;horizontal=1;startSize=50;horizontalStack=0;rounded=1;fontSize=14;fontStyle=0;strokeWidth=2;resizeParent=0;resizeLast=1;shadow=0;dashed=0;align=center;arcSize=4;whiteSpace=wrap;html=1;" vertex="1" parent="1">
          <mxGeometry x="-370" y="450" width="280" height="320" as="geometry" />
        </mxCell>
        <mxCell id="4VaB1KjLnEuzoE2qa5hZ-38" value="&lt;p style=&quot;margin-left:18.0pt&quot; class=&quot;MsoNormal&quot;&gt;&lt;b&gt;&lt;span style=&quot;font-size:5.0pt;&lt;br/&gt;line-height:115%;font-family:&amp;quot;Times New Roman&amp;quot;,serif;mso-ascii-theme-font:major-bidi;&lt;br/&gt;mso-hansi-theme-font:major-bidi;mso-bidi-theme-font:major-bidi;mso-ansi-language:&lt;br/&gt;#2000&quot;&gt;review_id: Primary Key, UUID, Indexed&lt;/span&gt;&lt;/b&gt;&lt;/p&gt;&lt;p style=&quot;margin-left:18.0pt&quot; class=&quot;MsoNormal&quot;&gt;&lt;b&gt;&lt;span style=&quot;font-size:5.0pt;&lt;br/&gt;line-height:115%;font-family:&amp;quot;Times New Roman&amp;quot;,serif;mso-ascii-theme-font:major-bidi;&lt;br/&gt;mso-hansi-theme-font:major-bidi;mso-bidi-theme-font:major-bidi;mso-ansi-language:&lt;br/&gt;#2000&quot;&gt;property_id: Foreign Key, references&amp;nbsp;Property(property_id)&lt;/span&gt;&lt;/b&gt;&lt;/p&gt;&lt;p style=&quot;margin-left:18.0pt&quot; class=&quot;MsoNormal&quot;&gt;&lt;b&gt;&lt;span style=&quot;font-size:5.0pt;&lt;br/&gt;line-height:115%;font-family:&amp;quot;Times New Roman&amp;quot;,serif;mso-ascii-theme-font:major-bidi;&lt;br/&gt;mso-hansi-theme-font:major-bidi;mso-bidi-theme-font:major-bidi;mso-ansi-language:&lt;br/&gt;#2000&quot;&gt;user_id: Foreign Key, references&amp;nbsp;User(user_id)&lt;/span&gt;&lt;/b&gt;&lt;/p&gt;&lt;p style=&quot;margin-left:18.0pt&quot; class=&quot;MsoNormal&quot;&gt;&lt;b&gt;&lt;span style=&quot;font-size:5.0pt;&lt;br/&gt;line-height:115%;font-family:&amp;quot;Times New Roman&amp;quot;,serif;mso-ascii-theme-font:major-bidi;&lt;br/&gt;mso-hansi-theme-font:major-bidi;mso-bidi-theme-font:major-bidi;mso-ansi-language:&lt;br/&gt;#2000&quot;&gt;rating: INTEGER, CHECK:&amp;nbsp;rating &amp;gt;= 1 AND rating &amp;lt;= 5, NOT NULL&lt;/span&gt;&lt;/b&gt;&lt;/p&gt;&lt;p style=&quot;margin-left:18.0pt&quot; class=&quot;MsoNormal&quot;&gt;&lt;b&gt;&lt;span style=&quot;font-size:5.0pt;&lt;br/&gt;line-height:115%;font-family:&amp;quot;Times New Roman&amp;quot;,serif;mso-ascii-theme-font:major-bidi;&lt;br/&gt;mso-hansi-theme-font:major-bidi;mso-bidi-theme-font:major-bidi;mso-ansi-language:&lt;br/&gt;#2000&quot;&gt;comment: TEXT, NOT NULL&lt;/span&gt;&lt;/b&gt;&lt;/p&gt;&lt;p style=&quot;margin-left:18.0pt&quot; class=&quot;MsoNormal&quot;&gt;&lt;b&gt;&lt;span style=&quot;font-size:5.0pt;&lt;br/&gt;line-height:115%;font-family:&amp;quot;Times New Roman&amp;quot;,serif;mso-ascii-theme-font:major-bidi;&lt;br/&gt;mso-hansi-theme-font:major-bidi;mso-bidi-theme-font:major-bidi;mso-ansi-language:&lt;br/&gt;#2000&quot;&gt;created_at: TIMESTAMP, DEFAULT CURRENT_TIMESTAMP&lt;/span&gt;&lt;/b&gt;&lt;/p&gt;&lt;p style=&quot;margin-left:18.0pt&quot; class=&quot;MsoNormal&quot;&gt;&lt;br/&gt;&lt;br/&gt;&lt;br/&gt;&lt;br/&gt;&lt;br/&gt;&lt;br/&gt;&lt;br/&gt;&lt;br/&gt;&lt;br/&gt;&lt;br/&gt;&lt;br/&gt;&lt;br/&gt;&lt;/p&gt;&lt;p class=&quot;MsoNormal&quot;&gt;&amp;nbsp;&lt;/p&gt;" style="align=left;strokeColor=none;fillColor=none;spacingLeft=4;spacingRight=4;fontSize=12;verticalAlign=top;resizable=0;rotatable=0;part=1;html=1;whiteSpace=wrap;" vertex="1" parent="4VaB1KjLnEuzoE2qa5hZ-37">
          <mxGeometry y="50" width="280" height="270" as="geometry" />
        </mxCell>
        <mxCell id="4VaB1KjLnEuzoE2qa5hZ-39" value="&lt;b&gt;Message&lt;/b&gt;" style="swimlane;childLayout=stackLayout;horizontal=1;startSize=50;horizontalStack=0;rounded=1;fontSize=14;fontStyle=0;strokeWidth=2;resizeParent=0;resizeLast=1;shadow=0;dashed=0;align=center;arcSize=4;whiteSpace=wrap;html=1;" vertex="1" parent="1">
          <mxGeometry x="50" y="460" width="280" height="320" as="geometry" />
        </mxCell>
        <mxCell id="4VaB1KjLnEuzoE2qa5hZ-40" value="&lt;p style=&quot;margin-left:18.0pt&quot; class=&quot;MsoNormal&quot;&gt;&lt;b&gt;&lt;span style=&quot;line-height: 115%; font-family: &amp;quot;Times New Roman&amp;quot;, serif; font-size: 5pt;&quot;&gt;message_id: Primary Key, UUID, Indexed&lt;/span&gt;&lt;/b&gt;&lt;/p&gt;&lt;p style=&quot;margin-left:18.0pt&quot; class=&quot;MsoNormal&quot;&gt;&lt;b&gt;&lt;span style=&quot;line-height: 115%; font-family: &amp;quot;Times New Roman&amp;quot;, serif; font-size: 5pt;&quot;&gt;sender_id: Foreign Key, references&amp;nbsp;User(user_id)&lt;/span&gt;&lt;/b&gt;&lt;/p&gt;&lt;p style=&quot;margin-left:18.0pt&quot; class=&quot;MsoNormal&quot;&gt;&lt;b&gt;&lt;span style=&quot;line-height: 115%; font-family: &amp;quot;Times New Roman&amp;quot;, serif; font-size: 5pt;&quot;&gt;recipient_id: Foreign Key, references&amp;nbsp;User(user_id)&lt;/span&gt;&lt;/b&gt;&lt;/p&gt;&lt;p style=&quot;margin-left:18.0pt&quot; class=&quot;MsoNormal&quot;&gt;&lt;b&gt;&lt;span style=&quot;line-height: 115%; font-family: &amp;quot;Times New Roman&amp;quot;, serif; font-size: 5pt;&quot;&gt;message_body: TEXT, NOT NULL&lt;/span&gt;&lt;/b&gt;&lt;/p&gt;&lt;p style=&quot;margin-left:18.0pt&quot; class=&quot;MsoNormal&quot;&gt;&lt;b&gt;&lt;span style=&quot;line-height: 115%; font-family: &amp;quot;Times New Roman&amp;quot;, serif; font-size: 5pt;&quot;&gt;sent_at: TIMESTAMP, DEFAULT CURRENT_TIMESTAMP&lt;/span&gt;&lt;/b&gt;&lt;/p&gt;&lt;p class=&quot;MsoNormal&quot;&gt;&amp;nbsp;&lt;/p&gt;&lt;p style=&quot;margin-left:18.0pt&quot; class=&quot;MsoNormal&quot;&gt;&lt;br/&gt;&lt;br/&gt;&lt;br/&gt;&lt;br/&gt;&lt;br/&gt;&lt;br/&gt;&lt;br/&gt;&lt;br/&gt;&lt;br/&gt;&lt;br/&gt;&lt;br/&gt;&lt;br/&gt;&lt;/p&gt;&lt;p class=&quot;MsoNormal&quot;&gt;&amp;nbsp;&lt;/p&gt;" style="align=left;strokeColor=none;fillColor=none;spacingLeft=4;spacingRight=4;fontSize=12;verticalAlign=top;resizable=0;rotatable=0;part=1;html=1;whiteSpace=wrap;" vertex="1" parent="4VaB1KjLnEuzoE2qa5hZ-39">
          <mxGeometry y="50" width="280" height="270" as="geometry" />
        </mxCell>
        <mxCell id="4VaB1KjLnEuzoE2qa5hZ-62" style="edgeStyle=orthogonalEdgeStyle;rounded=0;orthogonalLoop=1;jettySize=auto;html=1;exitX=1;exitY=0.5;exitDx=0;exitDy=0;entryX=0;entryY=0;entryDx=0;entryDy=0;" edge="1" parent="1" source="4VaB1KjLnEuzoE2qa5hZ-41" target="4VaB1KjLnEuzoE2qa5hZ-19">
          <mxGeometry relative="1" as="geometry" />
        </mxCell>
        <mxCell id="4VaB1KjLnEuzoE2qa5hZ-41" value="Hosts" style="shape=rhombus;perimeter=rhombusPerimeter;whiteSpace=wrap;html=1;align=center;" vertex="1" parent="1">
          <mxGeometry x="-450" y="20" width="120" height="60" as="geometry" />
        </mxCell>
        <mxCell id="4VaB1KjLnEuzoE2qa5hZ-61" style="edgeStyle=orthogonalEdgeStyle;rounded=0;orthogonalLoop=1;jettySize=auto;html=1;exitX=0;exitY=0.5;exitDx=0;exitDy=0;entryX=1;entryY=0;entryDx=0;entryDy=0;" edge="1" parent="1" source="4VaB1KjLnEuzoE2qa5hZ-42" target="4VaB1KjLnEuzoE2qa5hZ-19">
          <mxGeometry relative="1" as="geometry" />
        </mxCell>
        <mxCell id="4VaB1KjLnEuzoE2qa5hZ-63" style="edgeStyle=orthogonalEdgeStyle;rounded=0;orthogonalLoop=1;jettySize=auto;html=1;exitX=1;exitY=0.5;exitDx=0;exitDy=0;entryX=0;entryY=0;entryDx=0;entryDy=0;" edge="1" parent="1" source="4VaB1KjLnEuzoE2qa5hZ-42" target="4VaB1KjLnEuzoE2qa5hZ-34">
          <mxGeometry relative="1" as="geometry" />
        </mxCell>
        <mxCell id="4VaB1KjLnEuzoE2qa5hZ-42" value="Makes" style="shape=rhombus;perimeter=rhombusPerimeter;whiteSpace=wrap;html=1;align=center;" vertex="1" parent="1">
          <mxGeometry y="20" width="120" height="60" as="geometry" />
        </mxCell>
        <mxCell id="4VaB1KjLnEuzoE2qa5hZ-64" style="edgeStyle=orthogonalEdgeStyle;rounded=0;orthogonalLoop=1;jettySize=auto;html=1;exitX=0;exitY=0.5;exitDx=0;exitDy=0;entryX=0.5;entryY=0;entryDx=0;entryDy=0;" edge="1" parent="1" source="4VaB1KjLnEuzoE2qa5hZ-43" target="4VaB1KjLnEuzoE2qa5hZ-31">
          <mxGeometry relative="1" as="geometry" />
        </mxCell>
        <mxCell id="4VaB1KjLnEuzoE2qa5hZ-65" style="edgeStyle=orthogonalEdgeStyle;rounded=0;orthogonalLoop=1;jettySize=auto;html=1;exitX=1;exitY=0.5;exitDx=0;exitDy=0;entryX=0.5;entryY=0;entryDx=0;entryDy=0;" edge="1" parent="1" source="4VaB1KjLnEuzoE2qa5hZ-43" target="4VaB1KjLnEuzoE2qa5hZ-33">
          <mxGeometry relative="1" as="geometry" />
        </mxCell>
        <mxCell id="4VaB1KjLnEuzoE2qa5hZ-43" value="Has" style="shape=rhombus;perimeter=rhombusPerimeter;whiteSpace=wrap;html=1;align=center;" vertex="1" parent="1">
          <mxGeometry x="-220" y="-230" width="120" height="60" as="geometry" />
        </mxCell>
        <mxCell id="4VaB1KjLnEuzoE2qa5hZ-44" value="Receives" style="shape=rhombus;perimeter=rhombusPerimeter;whiteSpace=wrap;html=1;align=center;" vertex="1" parent="1">
          <mxGeometry x="400" y="20" width="120" height="60" as="geometry" />
        </mxCell>
        <mxCell id="4VaB1KjLnEuzoE2qa5hZ-70" style="edgeStyle=orthogonalEdgeStyle;rounded=0;orthogonalLoop=1;jettySize=auto;html=1;exitX=0.5;exitY=1;exitDx=0;exitDy=0;" edge="1" parent="1" source="4VaB1KjLnEuzoE2qa5hZ-46" target="4VaB1KjLnEuzoE2qa5hZ-37">
          <mxGeometry relative="1" as="geometry" />
        </mxCell>
        <mxCell id="4VaB1KjLnEuzoE2qa5hZ-71" style="edgeStyle=orthogonalEdgeStyle;rounded=0;orthogonalLoop=1;jettySize=auto;html=1;exitX=0.5;exitY=0;exitDx=0;exitDy=0;entryX=0.25;entryY=1;entryDx=0;entryDy=0;" edge="1" parent="1" source="4VaB1KjLnEuzoE2qa5hZ-46" target="4VaB1KjLnEuzoE2qa5hZ-19">
          <mxGeometry relative="1" as="geometry" />
        </mxCell>
        <mxCell id="4VaB1KjLnEuzoE2qa5hZ-46" value="Writes" style="shape=rhombus;perimeter=rhombusPerimeter;whiteSpace=wrap;html=1;align=center;" vertex="1" parent="1">
          <mxGeometry x="-290" y="350" width="120" height="60" as="geometry" />
        </mxCell>
        <mxCell id="4VaB1KjLnEuzoE2qa5hZ-68" style="edgeStyle=orthogonalEdgeStyle;rounded=0;orthogonalLoop=1;jettySize=auto;html=1;exitX=1;exitY=1;exitDx=0;exitDy=0;entryX=0;entryY=0;entryDx=0;entryDy=0;" edge="1" parent="1" source="4VaB1KjLnEuzoE2qa5hZ-47" target="4VaB1KjLnEuzoE2qa5hZ-37">
          <mxGeometry relative="1" as="geometry" />
        </mxCell>
        <mxCell id="4VaB1KjLnEuzoE2qa5hZ-47" value="Receives" style="shape=rhombus;perimeter=rhombusPerimeter;whiteSpace=wrap;html=1;align=center;" vertex="1" parent="1">
          <mxGeometry x="-520" y="380" width="120" height="60" as="geometry" />
        </mxCell>
        <mxCell id="4VaB1KjLnEuzoE2qa5hZ-75" style="edgeStyle=orthogonalEdgeStyle;rounded=0;orthogonalLoop=1;jettySize=auto;html=1;exitX=0.5;exitY=0;exitDx=0;exitDy=0;entryX=0.75;entryY=1;entryDx=0;entryDy=0;" edge="1" parent="1" source="4VaB1KjLnEuzoE2qa5hZ-48" target="4VaB1KjLnEuzoE2qa5hZ-19">
          <mxGeometry relative="1" as="geometry" />
        </mxCell>
        <mxCell id="4VaB1KjLnEuzoE2qa5hZ-48" value="Receives" style="shape=rhombus;perimeter=rhombusPerimeter;whiteSpace=wrap;html=1;align=center;" vertex="1" parent="1">
          <mxGeometry x="70" y="390" width="120" height="60" as="geometry" />
        </mxCell>
        <mxCell id="4VaB1KjLnEuzoE2qa5hZ-72" style="edgeStyle=orthogonalEdgeStyle;rounded=0;orthogonalLoop=1;jettySize=auto;html=1;exitX=0;exitY=0;exitDx=0;exitDy=0;" edge="1" parent="1" source="4VaB1KjLnEuzoE2qa5hZ-49" target="4VaB1KjLnEuzoE2qa5hZ-19">
          <mxGeometry relative="1" as="geometry" />
        </mxCell>
        <mxCell id="4VaB1KjLnEuzoE2qa5hZ-73" style="edgeStyle=orthogonalEdgeStyle;rounded=0;orthogonalLoop=1;jettySize=auto;html=1;exitX=0.5;exitY=1;exitDx=0;exitDy=0;entryX=0;entryY=0.5;entryDx=0;entryDy=0;" edge="1" parent="1" source="4VaB1KjLnEuzoE2qa5hZ-49" target="4VaB1KjLnEuzoE2qa5hZ-40">
          <mxGeometry relative="1" as="geometry" />
        </mxCell>
        <mxCell id="4VaB1KjLnEuzoE2qa5hZ-49" value="Sends" style="shape=rhombus;perimeter=rhombusPerimeter;whiteSpace=wrap;html=1;align=center;" vertex="1" parent="1">
          <mxGeometry x="-70" y="350" width="120" height="60" as="geometry" />
        </mxCell>
        <mxCell id="4VaB1KjLnEuzoE2qa5hZ-59" style="edgeStyle=orthogonalEdgeStyle;rounded=0;orthogonalLoop=1;jettySize=auto;html=1;exitX=1;exitY=0;exitDx=0;exitDy=0;entryX=0;entryY=0.5;entryDx=0;entryDy=0;" edge="1" parent="1" source="4VaB1KjLnEuzoE2qa5hZ-32" target="4VaB1KjLnEuzoE2qa5hZ-41">
          <mxGeometry relative="1" as="geometry" />
        </mxCell>
        <mxCell id="4VaB1KjLnEuzoE2qa5hZ-66" style="edgeStyle=orthogonalEdgeStyle;rounded=0;orthogonalLoop=1;jettySize=auto;html=1;exitX=1;exitY=0;exitDx=0;exitDy=0;entryX=0;entryY=0.5;entryDx=0;entryDy=0;" edge="1" parent="1" source="4VaB1KjLnEuzoE2qa5hZ-34" target="4VaB1KjLnEuzoE2qa5hZ-44">
          <mxGeometry relative="1" as="geometry" />
        </mxCell>
        <mxCell id="4VaB1KjLnEuzoE2qa5hZ-67" style="edgeStyle=orthogonalEdgeStyle;rounded=0;orthogonalLoop=1;jettySize=auto;html=1;exitX=0;exitY=0;exitDx=0;exitDy=0;entryX=1;entryY=0.5;entryDx=0;entryDy=0;" edge="1" parent="1" source="4VaB1KjLnEuzoE2qa5hZ-36" target="4VaB1KjLnEuzoE2qa5hZ-44">
          <mxGeometry relative="1" as="geometry" />
        </mxCell>
        <mxCell id="4VaB1KjLnEuzoE2qa5hZ-69" style="edgeStyle=orthogonalEdgeStyle;rounded=0;orthogonalLoop=1;jettySize=auto;html=1;exitX=0;exitY=0;exitDx=0;exitDy=0;entryX=0.565;entryY=1.005;entryDx=0;entryDy=0;entryPerimeter=0;" edge="1" parent="1" source="4VaB1KjLnEuzoE2qa5hZ-47" target="4VaB1KjLnEuzoE2qa5hZ-32">
          <mxGeometry relative="1" as="geometry" />
        </mxCell>
        <mxCell id="4VaB1KjLnEuzoE2qa5hZ-74" style="edgeStyle=orthogonalEdgeStyle;rounded=0;orthogonalLoop=1;jettySize=auto;html=1;exitX=0.5;exitY=1;exitDx=0;exitDy=0;entryX=0.389;entryY=-0.002;entryDx=0;entryDy=0;entryPerimeter=0;" edge="1" parent="1" source="4VaB1KjLnEuzoE2qa5hZ-48" target="4VaB1KjLnEuzoE2qa5hZ-39">
          <mxGeometry relative="1" as="geometry" />
        </mxCell>
        <mxCell id="4VaB1KjLnEuzoE2qa5hZ-78" value="1" style="text;html=1;align=center;verticalAlign=middle;whiteSpace=wrap;rounded=0;" vertex="1" parent="1">
          <mxGeometry x="-350" y="60" width="60" height="30" as="geometry" />
        </mxCell>
        <mxCell id="4VaB1KjLnEuzoE2qa5hZ-79" value="N" style="text;html=1;align=center;verticalAlign=middle;whiteSpace=wrap;rounded=0;" vertex="1" parent="1">
          <mxGeometry x="-480" y="60" width="60" height="30" as="geometry" />
        </mxCell>
        <mxCell id="4VaB1KjLnEuzoE2qa5hZ-80" value="1" style="text;html=1;align=center;verticalAlign=middle;whiteSpace=wrap;rounded=0;" vertex="1" parent="1">
          <mxGeometry x="-10" y="60" width="60" height="30" as="geometry" />
        </mxCell>
        <mxCell id="4VaB1KjLnEuzoE2qa5hZ-81" value="N" style="text;html=1;align=center;verticalAlign=middle;whiteSpace=wrap;rounded=0;" vertex="1" parent="1">
          <mxGeometry x="100" y="70" width="60" height="30" as="geometry" />
        </mxCell>
        <mxCell id="4VaB1KjLnEuzoE2qa5hZ-82" value="1" style="text;html=1;align=center;verticalAlign=middle;whiteSpace=wrap;rounded=0;" vertex="1" parent="1">
          <mxGeometry x="-230" y="330" width="60" height="30" as="geometry" />
        </mxCell>
        <mxCell id="4VaB1KjLnEuzoE2qa5hZ-83" value="N" style="text;html=1;align=center;verticalAlign=middle;whiteSpace=wrap;rounded=0;" vertex="1" parent="1">
          <mxGeometry x="-220" y="410" width="60" height="30" as="geometry" />
        </mxCell>
        <mxCell id="4VaB1KjLnEuzoE2qa5hZ-84" value="N" style="text;html=1;align=center;verticalAlign=middle;whiteSpace=wrap;rounded=0;" vertex="1" parent="1">
          <mxGeometry x="-490" y="340" width="60" height="30" as="geometry" />
        </mxCell>
        <mxCell id="4VaB1KjLnEuzoE2qa5hZ-85" value="1" style="text;html=1;align=center;verticalAlign=middle;whiteSpace=wrap;rounded=0;" vertex="1" parent="1">
          <mxGeometry x="-370" y="420" width="60" height="30" as="geometry" />
        </mxCell>
        <mxCell id="4VaB1KjLnEuzoE2qa5hZ-86" value="N" style="text;html=1;align=center;verticalAlign=middle;whiteSpace=wrap;rounded=0;" vertex="1" parent="1">
          <mxGeometry x="-10" y="590" width="60" height="30" as="geometry" />
        </mxCell>
        <mxCell id="4VaB1KjLnEuzoE2qa5hZ-87" value="1" style="text;html=1;align=center;verticalAlign=middle;whiteSpace=wrap;rounded=0;" vertex="1" parent="1">
          <mxGeometry x="-50" y="330" width="60" height="30" as="geometry" />
        </mxCell>
        <mxCell id="4VaB1KjLnEuzoE2qa5hZ-88" value="1" style="text;html=1;align=center;verticalAlign=middle;whiteSpace=wrap;rounded=0;" vertex="1" parent="1">
          <mxGeometry x="260" y="-110" width="60" height="30" as="geometry" />
        </mxCell>
        <mxCell id="4VaB1KjLnEuzoE2qa5hZ-89" value="N" style="text;html=1;align=center;verticalAlign=middle;whiteSpace=wrap;rounded=0;" vertex="1" parent="1">
          <mxGeometry x="-530" y="-230" width="60" height="30" as="geometry" />
        </mxCell>
        <mxCell id="4VaB1KjLnEuzoE2qa5hZ-90" value="1" style="text;html=1;align=center;verticalAlign=middle;whiteSpace=wrap;rounded=0;" vertex="1" parent="1">
          <mxGeometry x="390" width="60" height="30" as="geometry" />
        </mxCell>
        <mxCell id="4VaB1KjLnEuzoE2qa5hZ-91" value="N" style="text;html=1;align=center;verticalAlign=middle;whiteSpace=wrap;rounded=0;" vertex="1" parent="1">
          <mxGeometry x="490" y="-20" width="60" height="30" as="geometry" />
        </mxCell>
      </root>
    </mxGraphModel>
  </diagram>
</mxfile>
